HIERARCHY
ROOT Hips
{
	OFFSET 0.00000 0.00000 0.00000
	CHANNELS 6 Xposition Yposition Zposition Zrotation Yrotation Xrotation 
	JOINT LHipJoint
	{
		OFFSET 0 0 0
		CHANNELS 3 Zrotation Yrotation Xrotation
		JOINT LeftUpLeg
		{
			OFFSET 1.57314 -1.85774 0.63783
			CHANNELS 3 Zrotation Yrotation Xrotation
			JOINT LeftLeg
			{
				OFFSET 2.57982 -7.08799 0.00000
				CHANNELS 3 Zrotation Yrotation Xrotation
				JOINT LeftFoot
				{
					OFFSET 2.63993 -7.25315 0.00000
					CHANNELS 3 Zrotation Yrotation Xrotation
					JOINT LeftToeBase
					{
						OFFSET 0.16864 -0.46332 2.12791
						CHANNELS 3 Zrotation Yrotation Xrotation
						End Site
						{
							OFFSET 0.00000 -0.00000 1.09718
						}
					}
				}
			}
		}
	}
	JOINT RHipJoint
	{
		OFFSET 0 0 0
		CHANNELS 3 Zrotation Yrotation Xrotation
		JOINT RightUpLeg
		{
			OFFSET -1.56006 -1.85774 0.63784
			CHANNELS 3 Zrotation Yrotation Xrotation
			JOINT RightLeg
			{
				OFFSET -2.54246 -6.98536 0.00000
				CHANNELS 3 Zrotation Yrotation Xrotation
				JOINT RightFoot
				{
					OFFSET -2.65791 -7.30256 0.00000
					CHANNELS 3 Zrotation Yrotation Xrotation
					JOINT RightToeBase
					{
						OFFSET -0.18435 -0.50650 2.16316
						CHANNELS 3 Zrotation Yrotation Xrotation
						End Site
						{
							OFFSET -0.00000 -0.00000 1.11780
						}
					}
				}
			}
		}
	}
	JOINT LowerBack
	{
		OFFSET 0 0 0
		CHANNELS 3 Zrotation Yrotation Xrotation
		JOINT Spine
		{
			OFFSET -0.00136 1.92812 -0.29638
			CHANNELS 3 Zrotation Yrotation Xrotation
			JOINT Spine1
			{
				OFFSET -0.00528 1.96223 -0.02928
				CHANNELS 3 Zrotation Yrotation Xrotation
				JOINT Neck
				{
					OFFSET 0 0 0
					CHANNELS 3 Zrotation Yrotation Xrotation
					JOINT Neck1
					{
						OFFSET -0.01015 1.75586 0.07797
						CHANNELS 3 Zrotation Yrotation Xrotation
						JOINT Head
						{
							OFFSET 0.05540 1.72452 0.04558
							CHANNELS 3 Zrotation Yrotation Xrotation
							End Site
							{
								OFFSET 0.02170 1.79958 0.00864
							}
						}
					}
				}
				JOINT LeftShoulder
				{
					OFFSET 0 0 0
					CHANNELS 3 Zrotation Yrotation Xrotation
					JOINT LeftArm
					{
						OFFSET 3.16292 1.29277 -0.65728
						CHANNELS 3 Zrotation Yrotation Xrotation
						JOINT LeftForeArm
						{
							OFFSET 5.52302 -0.00000 -0.00000
							CHANNELS 3 Zrotation Yrotation Xrotation
							JOINT LeftHand
							{
								OFFSET 3.58675 -0.00000 -0.00000
								CHANNELS 3 Zrotation Yrotation Xrotation
								JOINT LeftFingerBase
								{
									OFFSET 0 0 0
									CHANNELS 3 Zrotation Yrotation Xrotation
									JOINT LeftHandIndex1
									{
										OFFSET 0.53641 -0.00000 -0.00000
										CHANNELS 3 Zrotation Yrotation Xrotation
										End Site
										{
											OFFSET 0.43247 -0.00000 -0.00000
										}
									}
								}
								JOINT LThumb
								{
									OFFSET 0 0 0
									CHANNELS 3 Zrotation Yrotation Xrotation
									End Site
									{
										OFFSET 0.43907 -0.00000 0.43907
									}
								}
							}
						}
					}
				}
				JOINT RightShoulder
				{
					OFFSET 0 0 0
					CHANNELS 3 Zrotation Yrotation Xrotation
					JOINT RightArm
					{
						OFFSET -3.08296 1.43376 -0.52927
						CHANNELS 3 Zrotation Yrotation Xrotation
						JOINT RightForeArm
						{
							OFFSET -5.84780 -0.00000 0.00000
							CHANNELS 3 Zrotation Yrotation Xrotation
							JOINT RightHand
							{
								OFFSET -3.62717 -0.00000 -0.00000
								CHANNELS 3 Zrotation Yrotation Xrotation
								JOINT RightFingerBase
								{
									OFFSET 0 0 0
									CHANNELS 3 Zrotation Yrotation Xrotation
									JOINT RightHandIndex1
									{
										OFFSET -0.65052 -0.00000 -0.00000
										CHANNELS 3 Zrotation Yrotation Xrotation
										End Site
										{
											OFFSET -0.52446 -0.00000 -0.00000
										}
									}
								}
								JOINT RThumb
								{
									OFFSET 0 0 0
									CHANNELS 3 Zrotation Yrotation Xrotation
									End Site
									{
										OFFSET -0.53247 -0.00000 0.53247
									}
								}
							}
						}
					}
				}
			}
		}
	}
}
MOTION
Frames: 15
Frame Time: .0083333
-0.3349 17.1947 -24.8418 0 0 0 0 0 0 -21 0 0 0 0 0 0 0 0 0 0 0 0 0 0 21 0 0 0 0 0 0 0 0 0 0 0 0 0 0 0 0 0 0 0 0 0 0 -16 0 0 21 0 0 11 0 0 0 -8 0 0 0 0 0 0 0 0 0 0 0 0 0 0 0 0 0 0 0 0 8 0 0 0 0 0 0 0 0 0 0 0 0 0 0 0 0 0
-0.3349 17.1947 -24.8418 -1.1355 -5.7759 1.2913 0.0000 0.0000 0.0000 -13.9907 8.5830 -10.9860 25.4540 19.2714 106.1346 1.2065 3.4304 19.9103 0.0146 -0.7793 -2.1418 0.0000 0.0000 0.0000 26.0394 12.5274 -19.1570 -5.7773 -14.2090 44.0813 -0.8461 -2.3892 -18.3962 -0.0325 -1.1638 3.1996 -1.0762 -1.9357 20.1432 1.9615 -2.6009 2.2382 3.4562 -1.1736 -8.6946 -1.3594 2.9056 -1.6761 -3.5119 3.5024 -12.6556 -1.0175 1.9245 -3.7722 -0.0000 0.0000 0.0000 -83.4185 9.5176 47.0371 121.2864 -55.9573 -86.7271 -0.0000 0.0000 -21.8253 37.7965 8.0426 6.1930 -7.1250 0.0000 -0.0000 9.6041 39.9381 -1.2112 -0.0000 0.0000 0.0000 75.9831 -3.0820 37.7206 -86.5655 59.9554 -57.0261 0.0000 -0.0000 -8.7378 -42.4112 22.5192 -19.2829 7.1250 -0.0000 -0.0000 -8.1453 -0.9222 -8.0958
-0.3448 17.1455 -24.3922 -1.6120 -5.3060 1.5781 0.0000 0.0000 0.0000 -12.7742 7.5743 -14.7319 26.5797 18.9287 109.5740 1.1138 2.3936 19.2943 0.0048 0.4466 1.2272 0.0000 0.0000 0.0000 26.6391 11.8689 -17.8553 -5.8385 -14.2700 44.3302 -1.0159 -2.0142 -19.8663 -0.0020 -0.2906 0.7984 -0.3649 -1.9253 19.9229 1.9212 -2.4382 2.4781 2.9436 -1.1288 -8.3539 -0.7897 2.7929 -2.4032 -3.5888 3.3734 -12.4705 -1.1179 1.8305 -3.5588 0.0000 -0.0000 0.0000 -83.3774 10.4736 46.5339 120.2334 -56.2474 -85.8531 -0.0000 0.0000 -22.2478 36.9871 8.6360 6.4526 -7.1250 0.0000 -0.0000 8.9252 40.5855 -0.9804 0.0000 -0.0000 0.0000 76.5739 -0.3924 37.3670 -88.6102 59.9927 -58.7964 0.0000 -0.0000 -8.6034 -42.9896 23.1967 -20.1619 7.1250 -0.0000 -0.0000 -8.3286 0.1022 -8.4329
-0.3535 17.1124 -23.9368 -1.5555 -4.7931 1.7819 0.0000 0.0000 0.0000 -12.4304 6.3523 -18.5101 27.4264 18.6227 112.2043 1.0321 1.8937 18.6608 0.1391 2.4041 6.6239 0.0000 0.0000 0.0000 26.7278 11.0605 -16.3512 -5.7691 -14.2008 44.0477 -1.1155 -2.2422 -20.8759 -0.0003 -0.1107 0.3042 -0.4006 -1.9018 19.8928 1.9587 -2.4096 2.3831 2.9992 -1.1107 -8.4399 -0.7280 2.6814 -2.2295 -3.6047 3.2237 -12.3708 -1.1321 1.7550 -3.5574 0.0000 -0.0000 0.0000 -83.7720 12.1352 45.8088 119.4108 -56.4649 -85.1682 -0.0000 0.0000 -22.7903 36.6611 8.9417 6.5991 -7.1250 0.0000 -0.0000 8.6513 40.9244 -0.8769 0.0000 -0.0000 0.0000 76.8384 1.5574 37.1888 -91.0273 59.9960 -60.8897 0.0000 -0.0000 -8.3841 -43.1529 23.8624 -20.7700 7.1250 -0.0000 -0.0000 -8.2673 0.9644 -8.4937
-0.3533 17.1090 -23.4753 -1.9120 -4.1989 2.1520 0.0000 0.0000 0.0000 -11.6134 5.0668 -22.3815 28.0983 18.3488 114.3231 0.8888 1.2102 17.4488 0.0078 0.5717 1.5711 0.0000 0.0000 0.0000 27.2594 10.1851 -14.8930 -5.6587 -14.0892 43.5959 -1.1922 -2.5363 -21.6817 -0.0386 1.2678 -3.4860 0.0394 -1.9205 19.7853 2.1555 -2.3189 2.2043 2.9404 -1.0748 -8.5917 -0.6002 2.4448 -1.7989 -3.8199 2.8758 -12.4638 -1.2279 1.5897 -3.6727 0.0000 -0.0000 0.0000 -84.1058 13.5539 45.3777 118.7526 -56.6333 -84.6190 -0.0000 0.0000 -23.3881 36.3686 9.3140 6.7968 -7.1250 0.0000 -0.0000 8.4077 41.3458 -0.7638 0.0000 -0.0000 0.0000 77.0870 3.0660 36.8610 -94.0946 59.9366 -63.5452 0.0000 -0.0000 -7.9884 -42.8588 23.8543 -20.5692 7.1250 -0.0000 -0.0000 -8.0992 0.8459 -8.3008
-0.3432 17.1158 -23.0200 -2.3769 -3.6274 2.2472 0.0000 0.0000 0.0000 -10.8957 3.7931 -26.0217 28.5625 18.1426 115.8056 0.7079 0.5174 15.7311 0.1911 -2.8152 -7.7646 0.0000 0.0000 0.0000 27.9022 9.0486 -13.0516 -5.4957 -13.9212 42.9226 -1.2328 -2.7773 -22.1404 -0.0597 1.5765 -4.3367 0.8377 -1.7932 19.9549 2.1829 -1.9738 2.3303 2.4267 -0.9364 -8.5881 0.0093 2.1360 -2.7181 -4.1290 2.4696 -11.8519 -1.3966 1.3577 -3.2836 0.0000 0.0000 0.0000 -83.8340 14.0807 45.6531 118.0051 -56.8185 -83.9940 -0.0000 0.0000 -24.1664 36.6734 9.3779 6.9184 -7.1250 0.0000 -0.0000 8.6869 41.4577 -0.7655 0.0000 0.0000 0.0000 77.6983 4.7131 35.9586 -97.2266 59.8017 -66.2542 0.0000 -0.0000 -7.3119 -42.5654 23.7876 -20.3270 7.1250 -0.0000 -0.0000 -7.9447 0.6588 -8.1136
-0.3449 17.1304 -22.5694 -2.4507 -3.2630 2.0863 0.0000 0.0000 0.0000 -10.8820 2.4201 -29.1670 28.7843 18.0390 116.5200 0.6025 0.0288 14.6595 0.6188 -5.0343 -14.0064 0.0000 0.0000 0.0000 28.1745 7.8046 -11.0087 -5.2960 -13.7096 42.0864 -1.1271 -3.1075 -21.3965 -0.0595 1.5742 -4.3302 0.7417 -1.6680 20.7616 2.4550 -1.7733 1.8427 2.7751 -0.8179 -9.5615 -0.4132 2.0263 -1.6718 -4.1542 2.3121 -11.5905 -1.3420 1.3062 -3.3958 -0.0000 0.0000 0.0000 -84.3814 15.9443 45.4596 117.5547 -56.9271 -83.6169 -0.0000 0.0000 -24.6805 37.8687 10.0856 7.7544 -7.1250 0.0000 -0.0000 9.8226 42.4670 -0.6204 -0.0000 0.0000 0.0000 77.6483 5.2499 35.9633 -100.1335 59.6084 -68.7644 0.0000 -0.0000 -6.7976 -42.8776 24.1129 -20.7736 7.1250 -0.0000 -0.0000 -8.0491 1.1628 -8.2925
-0.3616 17.1930 -22.0904 -2.6300 -3.4629 2.2881 0.0000 0.0000 0.0000 -10.6250 1.5977 -32.1781 28.7176 18.0705 116.3049 0.5740 -0.5919 14.5399 0.7194 -5.4202 -15.1110 0.0000 0.0000 0.0000 28.5891 7.1853 -9.3395 -5.0593 -13.4503 41.0782 -0.9964 -3.8413 -20.6136 -0.3813 3.9659 -10.9806 0.9207 -1.0892 20.8408 2.3215 -0.9838 1.8416 2.3037 -0.4532 -9.6417 0.1448 1.5707 -2.7053 -4.1907 1.7421 -10.8021 -1.4085 0.9822 -2.9410 0.0000 -0.0000 0.0000 -83.7209 16.4950 46.0877 117.2148 -57.0076 -83.3319 -0.0000 0.0000 -25.0582 39.0766 14.3993 11.4160 -7.1250 0.0000 -0.0000 11.2859 47.9536 0.8324 0.0000 -0.0000 0.0000 78.3964 6.3099 34.8456 -103.2101 59.3302 -71.4145 0.0000 -0.0000 -6.7681 -41.5220 23.7920 -19.6562 7.1250 -0.0000 -0.0000 -7.3369 0.2925 -7.4353
-0.3670 17.2322 -21.6110 -2.9317 -3.9002 2.8247 0.0000 0.0000 0.0000 -10.2449 0.9096 -35.4827 28.5550 18.1460 115.7816 0.5290 -1.3433 14.2905 0.6725 -5.2438 -14.6053 0.0000 0.0000 0.0000 29.0079 7.1932 -7.2701 -4.7939 -13.1479 39.9245 -0.9949 -3.4678 -20.3948 -0.5168 4.6074 -12.7922 1.2423 -0.4895 20.2724 2.1852 -0.1542 1.9040 1.7217 -0.0781 -9.2874 0.5155 1.1597 -3.8189 -3.9696 1.2384 -10.0792 -1.3684 0.6931 -2.5077 -0.0000 0.0000 0.0000 -83.0864 16.8593 46.6274 117.1456 -57.0238 -83.2739 -0.0000 0.0000 -25.1781 36.0842 11.0988 7.9861 -7.1250 0.0000 -0.0000 8.2231 43.4717 -0.3124 -0.0000 0.0000 0.0000 79.0154 7.2514 33.9752 -106.4657 58.9504 -74.2095 0.0000 -0.0000 -7.0000 -39.5180 22.7699 -17.7056 7.1250 -0.0000 -0.0000 -6.3797 -1.5832 -6.2402
-0.3643 17.3169 -21.1218 -3.0815 -3.9859 3.2426 0.0000 0.0000 0.0000 -10.2136 -0.2033 -38.2260 28.1511 18.3260 114.4910 0.4429 -2.0450 13.4830 0.6734 -5.2473 -14.6154 0.0000 0.0000 0.0000 29.2164 6.8236 -5.1290 -4.4770 -12.7694 38.5113 -0.9251 -3.4544 -19.7300 -0.8366 5.8347 -16.3055 1.5342 -0.1271 20.0198 2.0525 0.3708 1.7492 1.2635 0.1572 -9.3276 0.4403 0.8638 -4.0864 -3.4849 0.8895 -9.7917 -1.1894 0.5057 -2.3734 -0.0000 -0.0000 0.0000 -82.6917 17.5880 46.9087 117.1676 -57.0186 -83.2923 -0.0000 0.0000 -25.3010 35.0971 10.1528 7.0615 -7.1250 0.0000 -0.0000 7.2845 42.2120 -0.5040 -0.0000 -0.0000 0.0000 79.3824 7.7071 33.6445 -109.4712 58.5178 -76.7787 0.0000 -0.0000 -7.1407 -38.7426 22.2621 -16.9079 7.1250 -0.0000 -0.0000 -6.0213 -2.4205 -5.7941
-0.3501 17.3933 -20.5967 -2.9558 -4.6949 3.5079 0.0000 0.0000 0.0000 -10.6556 -0.7017 -40.1311 27.5612 18.5700 112.6269 0.3115 -2.7114 11.8946 0.7298 -5.4583 -15.2204 0.0000 0.0000 0.0000 28.9771 6.6899 -2.5648 -4.1256 -12.3257 36.8942 -0.8190 -3.1146 -18.4965 -1.0924 6.6422 -18.6597 1.6277 0.4724 19.5228 1.6876 1.1300 1.6950 0.6050 0.5074 -9.1116 0.5104 0.5962 -4.6097 -2.9241 0.5848 -9.2886 -1.0105 0.3315 -2.1217 -0.0000 -0.0000 0.0000 -82.0689 18.2893 47.2206 117.3243 -56.9818 -83.4238 -0.0000 0.0000 -25.5419 35.0805 9.6922 6.7431 -7.1250 0.0000 -0.0000 7.2569 41.6581 -0.6018 -0.0000 -0.0000 0.0000 79.9219 7.9325 33.3478 -112.1291 58.0663 -79.0400 0.0000 -0.0000 -7.2408 -38.1636 21.4278 -16.0193 7.1250 -0.0000 -0.0000 -5.8379 -3.5725 -5.4919
-0.3381 17.4611 -20.1056 -3.2505 -4.5092 3.5541 0.0000 0.0000 0.0000 -10.4510 -2.0875 -41.9554 26.8998 18.8180 110.5637 0.2242 -3.2783 10.7707 0.7887 -5.6693 -15.8278 0.0000 0.0000 0.0000 29.2470 6.0046 -0.0821 -3.7338 -11.7974 35.0192 -0.6244 -2.9602 -16.2927 -1.0929 6.6436 -18.6638 2.2183 0.6991 19.6072 1.5226 1.5466 1.5667 -0.0243 0.6767 -9.2791 0.4465 0.3790 -4.9627 -2.3230 0.3471 -8.7832 -0.8021 0.1987 -1.8992 0.0000 0.0000 0.0000 -81.6294 19.2268 47.3606 117.6084 -56.9143 -83.6619 -0.0000 0.0000 -25.5174 34.3489 8.9573 6.0737 -7.1250 0.0000 -0.0000 6.5797 40.7014 -0.7009 0.0000 0.0000 0.0000 80.2208 8.1103 33.2997 -114.3964 57.6271 -80.9596 0.0000 -0.0000 -7.6694 -37.8840 20.6625 -15.3516 7.1250 -0.0000 -0.0000 -5.8149 -4.5529 -5.3632
-0.3205 17.5676 -19.5818 -3.4152 -4.4605 3.8611 0.0000 0.0000 0.0000 -10.4618 -3.4475 -43.5916 25.9940 19.1159 107.7772 0.1360 -3.8465 9.4605 1.0649 -6.5607 -18.4202 0.0000 0.0000 0.0000 29.2274 5.3142 2.2010 -3.3170 -11.1913 32.9280 -0.4210 -2.7185 -13.5554 -1.0837 6.6165 -18.5842 2.6197 0.9623 19.2903 1.3883 1.9778 0.9290 -0.5141 0.8521 -9.7846 0.2286 0.1437 -3.2588 -1.6919 0.0738 -8.8941 -0.5722 0.0667 -2.2334 -0.0000 0.0000 0.0000 -81.3854 21.2967 47.4564 117.9917 -56.8218 -83.9829 -0.0000 0.0000 -25.3223 34.3100 9.2075 6.2316 -7.1250 0.0000 -0.0000 6.5504 40.9956 -0.6500 -0.0000 0.0000 0.0000 80.2729 7.0736 33.6601 -116.6632 57.1355 -82.8689 0.0000 -0.0000 -8.1396 -39.3378 21.0149 -16.3788 7.1250 -0.0000 -0.0000 -6.6316 -3.7181 -6.2302
-0.2978 17.6918 -19.0569 -3.3845 -3.7262 3.8583 0.0000 0.0000 0.0000 -10.7835 -5.5824 -44.4545 24.9114 19.4116 104.4965 0.2837 -2.6992 11.4239 0.2577 -3.2658 -9.0197 0.0000 0.0000 0.0000 28.9669 3.9716 4.5035 -2.9172 -10.5598 30.8091 -0.2525 -2.5534 -10.7841 -1.1850 6.9084 -19.4442 3.1731 0.9768 19.4697 1.1192 2.1294 0.0850 -1.1777 0.8654 -10.7932 0.2266 -0.1515 -0.6830 -1.1765 -0.2914 -9.1917 -0.4087 -0.1174 -2.7978 -0.0000 0.0000 0.0000 -80.9414 23.9550 47.7570 118.5838 -56.6757 -84.4780 -0.0000 0.0000 -24.8594 34.5649 9.7821 6.6763 -7.1250 0.0000 -0.0000 6.7919 41.7080 -0.5544 -0.0000 0.0000 0.0000 80.4072 5.0892 34.0938 -119.1778 56.5251 -84.9739 0.0000 -0.0000 -8.5078 -41.1711 21.6717 -17.8982 7.1250 -0.0000 -0.0000 -7.5977 -2.3624 -7.3437
-0.2740 17.8168 -18.4800 -3.1016 -3.9397 4.3240 0.0000 0.0000 0.0000 -11.3393 -6.6854 -45.2739 23.6625 19.6753 100.7643 0.2573 -2.7669 11.0107 0.2057 -2.9200 -8.0560 0.0000 0.0000 0.0000 28.2257 3.3561 6.7967 -2.4881 -9.8163 28.3838 -0.1039 -2.2693 -7.3665 -1.2413 7.0646 -19.9068 3.1988 1.3501 18.3792 0.8148 2.5620 -0.2473 -1.6170 1.0637 -10.5147 0.0454 -0.4024 0.1083 -0.7180 -0.5979 -9.3233 -0.2230 -0.2754 -2.9880 0.0000 -0.0000 0.0000 -80.7541 25.6174 47.6339 119.0857 -56.5487 -84.8971 -0.0000 0.0000 -24.5705 34.5081 9.2006 6.2730 -7.1250 0.0000 -0.0000 6.7279 41.0081 -0.6657 0.0000 -0.0000 0.0000 80.3792 4.1899 34.5643 -120.9473 56.0522 -86.4460 0.0000 -0.0000 -8.5227 -42.0928 21.9306 -18.6435 7.1250 -0.0000 -0.0000 -8.0890 -1.7439 -7.9192
